<svg width="39" height="32" viewBox="0 0 39 32" fill="none" xmlns="http://www.w3.org/2000/svg">
<mask id="mask0" mask-type="alpha" maskUnits="userSpaceOnUse" x="2" y="27" width="37" height="5">
<path d="M2.01172 31.7954H38.471V27.0107H2.01172V31.7954Z" fill="#9DA8B6"/>
</mask>
<g mask="url(#mask0)">
<path fill-rule="evenodd" clip-rule="evenodd" d="M34.4058 29.9754C34.4058 29.3564 34.7864 28.861 35.4013 28.861C35.9892 28.861 36.3765 29.3358 36.3765 29.9754C36.3765 30.6151 35.9892 31.0898 35.4013 31.0898C34.7864 31.0898 34.4058 30.5945 34.4058 29.9754ZM36.9911 29.9754V27.0107H36.3498V28.7305C36.1293 28.4347 35.7686 28.2488 35.3142 28.2488C34.4191 28.2488 33.7375 28.9713 33.7375 29.9754C33.7375 30.9799 34.4191 31.702 35.3142 31.702C35.7686 31.702 36.1293 31.5162 36.3498 31.2204V31.6196H36.9911V29.9754ZM27.9591 29.9754C27.9591 29.3564 28.3397 28.861 28.9543 28.861C29.5421 28.861 29.9298 29.3358 29.9298 29.9754C29.9298 30.6151 29.5421 31.0898 28.9543 31.0898C28.3397 31.0898 27.9591 30.5945 27.9591 29.9754ZM30.5443 29.9754V28.3313H29.9031V28.7305C29.6826 28.4347 29.3219 28.2488 28.8675 28.2488C27.9724 28.2488 27.2908 28.9713 27.2908 29.9754C27.2908 30.9799 27.9724 31.702 28.8675 31.702C29.3219 31.702 29.6826 31.5162 29.9031 31.2204V31.6196H30.5443V29.9754ZM38.094 31.3729V31.454H38.1664C38.1828 31.454 38.1961 31.4506 38.2061 31.4437C38.2158 31.4372 38.2208 31.4269 38.2208 31.4131C38.2208 31.3997 38.2158 31.3898 38.2061 31.3829C38.1961 31.3764 38.1828 31.3729 38.1664 31.3729H38.094ZM38.1671 31.3162C38.2048 31.3162 38.2342 31.3248 38.2545 31.3423C38.2749 31.3595 38.2852 31.3832 38.2852 31.4131C38.2852 31.4382 38.2769 31.4588 38.2609 31.4749C38.2445 31.4911 38.2212 31.5014 38.1911 31.5048L38.2875 31.6192H38.2121L38.1227 31.5059H38.094V31.6192H38.0313V31.3162H38.1671ZM38.1484 31.7233C38.1828 31.7233 38.2145 31.7168 38.2442 31.7034C38.2735 31.69 38.2996 31.6718 38.3216 31.6491C38.3439 31.6261 38.3613 31.5993 38.3743 31.568C38.387 31.5371 38.3933 31.5041 38.3933 31.4691C38.3933 31.4337 38.387 31.4007 38.3743 31.3698C38.3613 31.3389 38.3439 31.3121 38.3216 31.2891C38.2996 31.2661 38.2735 31.2482 38.2442 31.2352C38.2145 31.2218 38.1828 31.2152 38.1484 31.2152C38.1137 31.2152 38.081 31.2218 38.051 31.2352C38.0206 31.2482 37.9943 31.2661 37.9719 31.2891C37.9499 31.3121 37.9322 31.3389 37.9196 31.3698C37.9069 31.4007 37.9005 31.4337 37.9005 31.4691C37.9005 31.5041 37.9069 31.5371 37.9196 31.568C37.9322 31.5993 37.9499 31.6261 37.9719 31.6491C37.9943 31.6718 38.0206 31.69 38.051 31.7034C38.081 31.7168 38.1137 31.7233 38.1484 31.7233ZM38.1484 31.1428C38.1931 31.1428 38.2348 31.1513 38.2739 31.1682C38.3129 31.1854 38.3473 31.2087 38.3766 31.2383C38.4057 31.2678 38.4287 31.3025 38.4457 31.3423C38.4624 31.3819 38.471 31.4241 38.471 31.4691C38.471 31.5138 38.4624 31.556 38.4457 31.5955C38.4287 31.635 38.4057 31.6694 38.3766 31.6989C38.3473 31.7285 38.3129 31.7522 38.2739 31.7694C38.2348 31.7869 38.1931 31.7955 38.1484 31.7955C38.1027 31.7955 38.0603 31.7869 38.0206 31.7694C37.9809 31.7522 37.9466 31.7285 37.9179 31.6989C37.8885 31.6694 37.8658 31.635 37.8488 31.5955C37.8321 31.556 37.8238 31.5138 37.8238 31.4691C37.8238 31.4241 37.8321 31.3819 37.8488 31.3423C37.8658 31.3025 37.8885 31.2678 37.9179 31.2383C37.9466 31.2087 37.9809 31.1854 38.0206 31.1682C38.0603 31.1513 38.1027 31.1428 38.1484 31.1428ZM33.0029 28.2488C32.6022 28.2488 32.3146 28.4416 32.1344 28.7305V28.3313H31.4995V31.6196H32.1411V29.769C32.1411 29.2255 32.395 28.8748 32.8491 28.8748C32.9895 28.8748 33.1363 28.8954 33.2834 28.9572L33.4973 28.3382C33.3435 28.2763 33.143 28.2488 33.0029 28.2488ZM8.35134 29.9754C8.35134 29.3564 8.73234 28.861 9.34689 28.861C9.93474 28.861 10.3224 29.3358 10.3224 29.9754C10.3224 30.6151 9.93474 31.0898 9.34689 31.0898C8.73234 31.0898 8.35134 30.5945 8.35134 29.9754ZM10.937 29.9754V28.3313H10.2954V28.7305C10.0752 28.4347 9.71421 28.2488 9.26014 28.2488C8.36502 28.2488 7.68341 28.9713 7.68341 29.9754C7.68341 30.9799 8.36502 31.702 9.26014 31.702C9.71421 31.702 10.0752 31.5162 10.2954 31.2204V31.6196H10.937V29.9754ZM19.5816 28.861C20.0557 28.861 20.3767 29.1774 20.4234 29.6934H18.6995C18.7599 29.2118 19.0672 28.861 19.5816 28.861ZM19.595 28.2488C18.6595 28.2488 18.0182 28.9435 18.0182 29.9686C18.0182 31.0143 18.6865 31.702 19.6417 31.702C20.1228 31.702 20.5635 31.5784 20.9512 31.241L20.6102 30.7528C20.343 30.973 20.0023 31.0967 19.6817 31.0967C19.234 31.0967 18.7799 30.8353 18.6995 30.2437H21.0846C21.0913 30.1544 21.098 30.0647 21.098 29.9686C21.0913 28.9435 20.4901 28.2488 19.595 28.2488ZM24.0843 29.9754C24.0843 30.973 24.7322 31.702 25.7611 31.702C26.2422 31.702 26.5628 31.5921 26.9101 31.3101L26.5762 30.7941C26.3156 30.9868 26.0417 31.0898 25.7411 31.0898C25.1866 31.083 24.7522 30.6357 24.7522 29.9754C24.7522 29.3152 25.1866 28.8679 25.7411 28.861C26.0417 28.861 26.3156 28.9641 26.5762 29.1568L26.9101 28.6408C26.5628 28.3588 26.2422 28.2488 25.7611 28.2488C24.7322 28.2488 24.0843 28.9782 24.0843 29.9754ZM14.3974 28.5927C14.0634 28.3656 13.6023 28.2488 13.0945 28.2488C12.2865 28.2488 11.7921 28.6408 11.7921 29.2945C11.7921 29.8308 12.1527 30.1544 12.8677 30.2575L13.195 30.3056C13.5756 30.3605 13.7828 30.4983 13.7828 30.6838C13.7828 30.9384 13.5022 31.1036 13.0278 31.1036C12.5267 31.1036 12.1994 30.9452 11.9659 30.7597L11.6383 31.2757C12.1127 31.6333 12.6805 31.702 13.0211 31.702C13.9433 31.702 14.4507 31.262 14.4507 30.6357C14.4507 30.0579 14.0634 29.7621 13.3618 29.659L13.0345 29.6109C12.7339 29.5697 12.4667 29.4732 12.4667 29.2533C12.4667 29.0125 12.7205 28.8473 13.1012 28.8473C13.5089 28.8473 13.9029 29.0056 14.0968 29.1293L14.3974 28.5927ZM23.356 28.2488C22.9553 28.2488 22.668 28.4416 22.4875 28.7305V28.3313H21.853V31.6196H22.4942V29.769C22.4942 29.2255 22.7481 28.8748 23.2025 28.8748C23.3426 28.8748 23.4898 28.8954 23.6366 28.9572L23.8504 28.3382C23.6969 28.2763 23.4964 28.2488 23.356 28.2488ZM17.4304 28.3313H16.268V27.334H15.6201V28.3313H14.9452V28.9297H15.6201V30.4845C15.6201 31.2479 15.8807 31.702 16.7021 31.702C17.0027 31.702 17.3503 31.6058 17.5708 31.4475L17.3703 30.8628C17.1632 30.9868 16.9359 31.0486 16.7558 31.0486C16.4081 31.0486 16.268 30.8284 16.268 30.4983V28.9297H17.4304V28.3313ZM7.02216 31.6196V29.5488C7.02216 28.7717 6.56776 28.2557 5.79274 28.2488C5.38538 28.242 4.96434 28.3725 4.67041 28.8335C4.44988 28.469 4.10257 28.2488 3.61481 28.2488C3.27417 28.2488 2.91352 28.345 2.65295 28.7305V28.3313H2.01172V31.6196H2.65963V29.7346C2.65963 29.1637 2.99359 28.861 3.46801 28.861C3.92875 28.861 4.18932 29.1705 4.18932 29.7277V31.6196H4.83756V29.7346C4.83756 29.1637 5.18487 28.861 5.64594 28.861C6.12036 28.861 6.37392 29.1705 6.37392 29.7277V31.6196H7.02216Z" fill="#9DA8B6"/>
</g>
<mask id="mask1" mask-type="alpha" maskUnits="userSpaceOnUse" x="0" y="0" width="39" height="32">
<path d="M0 31.7954H38.8645V0.665527H0V31.7954Z" fill="#9DA8B6"/>
</mask>
<g mask="url(#mask1)">
<path fill-rule="evenodd" clip-rule="evenodd" d="M13.6514 22.7556H25.2133V3.30957H13.6514V22.7556Z" fill="#C0CCDA"/>
<path fill-rule="evenodd" clip-rule="evenodd" d="M14.8448 13.0322C14.8448 9.08709 16.6387 5.57378 19.4322 3.30921C17.3891 1.65304 14.8115 0.665039 12.0096 0.665039C5.37677 0.665039 0 6.2021 0 13.0322C0 19.8623 5.37677 25.3994 12.0096 25.3994C14.8115 25.3994 17.3891 24.4114 19.4322 22.7552C16.6387 20.4907 14.8448 16.9773 14.8448 13.0322Z" fill="#9DA8B6"/>
<path fill-rule="evenodd" clip-rule="evenodd" d="M38.4894 20.817V20.2158H38.3677L38.2275 20.6294L38.0877 20.2158H37.966V20.817H38.0517V20.3634L38.1832 20.7546H38.2722L38.4034 20.3626V20.817H38.4894ZM37.7184 20.817V20.3182H37.8746V20.2167H37.4775V20.3182H37.6333V20.817H37.7184Z" fill="#9DA8B6"/>
<path fill-rule="evenodd" clip-rule="evenodd" d="M38.8648 13.0327C38.8648 19.8628 33.4877 25.3999 26.8552 25.3999C24.0534 25.3999 21.4754 24.4119 19.4326 22.7557C22.2261 20.4911 24.02 16.9778 24.02 13.0327C24.02 9.08757 22.2261 5.57427 19.4326 3.3097C21.4754 1.65353 24.0534 0.665527 26.8552 0.665527C33.4877 0.665527 38.8648 6.20259 38.8648 13.0327Z" fill="#D3DCE6"/>
</g>
</svg>
