<svg width="89" height="32" viewBox="0 0 89 32" fill="none" xmlns="http://www.w3.org/2000/svg">
<path d="M57.1741 0.665527C57.5316 0.837779 57.9216 0.91903 58.3051 0.997031C58.6659 1.07178 59.0006 1.23103 59.3549 1.31553C59.5629 1.36428 59.5402 1.52029 59.5174 1.66979C59.3777 2.53755 59.2346 3.40531 59.0884 4.30557C58.4091 3.92206 57.6909 3.66531 56.9206 3.60031C55.9944 3.52231 55.1851 3.81156 54.5286 4.48432C53.5048 5.52758 53.1473 6.82759 53.1051 8.23811C53.0823 8.95636 53.0791 9.66812 53.3488 10.3734C53.7941 11.5304 54.8471 12.1999 56.1049 12.0179C56.7679 11.9236 57.3756 11.6604 57.9866 11.3906C57.9249 12.3332 57.6876 13.2334 57.5966 14.1532C57.5804 14.3319 57.5024 14.4229 57.3399 14.4652C56.0366 14.8032 54.7236 14.9949 53.4138 14.5139C52.6111 14.2182 51.9448 13.7274 51.4346 13.0287C50.4173 11.6344 50.2418 10.0419 50.2938 8.38761C50.3361 7.01934 50.5961 5.69983 51.1616 4.45507C51.8668 2.90155 52.9361 1.68604 54.5676 1.05228C54.8634 0.93528 55.1851 0.88328 55.4939 0.798779C55.5979 0.769528 55.7279 0.792279 55.7896 0.665527C56.2544 0.665527 56.7126 0.665527 57.1741 0.665527Z" fill="#C0CCDA"/>
<path d="M88.0658 31.2971C87.8546 31.3069 87.7701 31.2224 87.7831 30.9981C87.8026 30.5984 87.7896 30.1954 87.7896 29.7631C87.6173 29.8411 87.6076 29.9776 87.5848 30.1044C87.5231 30.4294 87.4581 30.7576 87.4028 31.0826C87.3801 31.2094 87.3411 31.2874 87.1851 31.2809C87.0421 31.2744 86.9803 31.2159 86.9608 31.0794C86.9023 30.7056 86.7561 30.3481 86.7496 29.9646C86.7496 29.8866 86.7496 29.7989 86.5773 29.7404C86.5773 30.1076 86.5773 30.4489 86.5773 30.7934C86.5773 30.8974 86.5708 31.0014 86.5773 31.1021C86.5871 31.2419 86.5253 31.2809 86.3921 31.2776C86.2686 31.2744 86.1971 31.2484 86.2003 31.1054C86.2036 30.4976 86.2036 29.8866 86.2003 29.2788C86.2003 29.1228 86.2816 29.0676 86.4148 29.0936C86.5611 29.1196 86.7788 28.9798 86.8308 29.2593C86.9023 29.6429 86.9706 30.0264 87.0583 30.4034C87.0843 30.5139 87.0583 30.6634 87.2306 30.7576C87.3021 30.4131 87.3703 30.0881 87.4386 29.7599C87.4516 29.6916 87.4776 29.6266 87.4808 29.5584C87.4971 29.1748 87.6823 29.0123 88.0658 29.0903C88.0658 29.8249 88.0658 30.5626 88.0658 31.2971Z" fill="#C0CCDA"/>
<path d="M10.325 4.59494C10.0358 4.89394 9.9805 5.3002 9.84725 5.6642C9.4735 6.69446 9.13549 7.74097 8.78774 8.78098C8.37174 10.0257 7.95898 11.2738 7.53648 12.5185C7.32847 13.136 7.10097 13.747 6.89622 14.3678C6.84422 14.5303 6.74347 14.5368 6.61347 14.5335C6.16496 14.5303 5.71321 14.5173 5.26795 14.5368C5.0372 14.5465 4.9787 14.4653 4.97545 14.2508C4.96245 13.3083 4.9462 12.369 4.91045 11.4265C4.8357 9.27824 4.78045 7.13322 4.77395 4.98494C4.77395 4.92644 4.7707 4.87119 4.76745 4.81269C4.7642 4.74769 4.7772 4.66319 4.66995 4.67294C4.5952 4.67944 4.59845 4.74769 4.5887 4.80294C4.42619 5.84295 4.26694 6.88296 4.09794 7.91972C3.94194 8.86873 3.77294 9.81124 3.61694 10.7603C3.42843 11.9108 3.24318 13.0613 3.06768 14.215C3.03193 14.4393 2.97343 14.5465 2.70693 14.5368C2.05042 14.5108 1.39391 14.5205 0.737405 14.5335C0.542403 14.5368 0.464402 14.4913 0.503402 14.2898C0.587903 13.8153 0.665904 13.344 0.743905 12.8695C1.02666 11.095 1.30616 9.32049 1.59866 7.54922C1.88467 5.82345 2.12517 4.08793 2.43067 2.36542C2.49567 1.99491 2.53792 1.61791 2.58342 1.24415C2.60292 1.0719 2.66793 0.997151 2.86618 0.997151C4.02969 1.0069 5.1932 1.01015 6.35671 0.997151C6.60697 0.993901 6.59397 1.11415 6.59722 1.2864C6.67522 3.81493 6.65247 6.34021 6.67847 8.86873C6.67847 8.96624 6.64922 9.07024 6.72397 9.16449C6.90272 9.08649 6.89622 8.91749 6.93847 8.78748C7.39998 7.36072 7.85498 5.93395 8.31324 4.50719C8.65449 3.44118 9.00549 2.37517 9.33375 1.3059C9.402 1.08815 9.4735 0.993901 9.72375 0.997151C10.9458 1.0134 12.1645 1.01015 13.3865 1.0004C13.653 0.997151 13.718 1.0264 13.666 1.3319C13.3833 2.98942 13.146 4.65669 12.8828 6.31746C12.6423 7.82872 12.3628 9.33674 12.145 10.8545C11.9858 11.953 11.7973 13.045 11.6413 14.1435C11.6023 14.4263 11.521 14.566 11.1798 14.5465C10.4908 14.5075 9.7985 14.5238 9.10624 14.5433C8.86249 14.5498 8.84949 14.462 8.87874 14.267C9.15499 12.4698 9.42475 10.6693 9.701 8.87198C9.89925 7.57197 10.1073 6.27196 10.3055 4.97194C10.3185 4.84844 10.3185 4.72169 10.325 4.59494Z" fill="#C0CCDA"/>
<path d="M79.1088 14.5334C79.1023 14.1889 79.2388 13.8867 79.1998 13.5162C78.982 13.6949 78.8 13.8412 78.6213 13.9907C77.1522 15.2127 74.7602 14.8032 73.8892 12.8597C73.5675 12.1414 73.3627 11.4069 73.3302 10.6106C73.2717 9.23587 73.444 7.90661 73.977 6.63585C74.4872 5.42358 75.1892 4.36407 76.3982 3.72057C77.695 3.03156 79.1933 3.32406 80.1488 4.47132C80.1845 4.51682 80.2105 4.56882 80.256 4.60457C80.3145 4.65333 80.3893 4.73133 80.4543 4.72483C80.5583 4.71508 80.5225 4.60132 80.5355 4.52657C80.7175 3.42156 80.9028 2.3133 81.075 1.20829C81.0978 1.05554 81.1173 0.990536 81.2928 0.993786C82.0533 1.00354 82.8138 1.00354 83.5743 0.993786C83.7628 0.990536 83.8083 1.04579 83.7791 1.22779C83.5191 2.84631 83.2623 4.46157 83.0056 6.08009C82.7358 7.79936 82.4661 9.51863 82.1963 11.2379C82.037 12.2649 81.8778 13.2952 81.7218 14.3222C81.7055 14.4262 81.7153 14.5269 81.5593 14.5269C80.7403 14.5334 79.9245 14.5334 79.1088 14.5334ZM76.1805 9.68763C76.1805 9.90538 76.1545 10.1264 76.187 10.3409C76.2682 10.8869 76.3722 11.4459 76.8922 11.7644C77.5813 12.1869 78.462 11.9594 78.9853 11.2509C79.3363 10.7764 79.567 10.2466 79.684 9.66488C79.8628 8.76462 79.9408 7.87411 79.6385 6.98035C79.4598 6.45384 78.9593 6.06059 78.41 6.04759C77.5878 6.02809 77.097 6.51884 76.746 7.16885C76.3235 7.94886 76.1577 8.80037 76.1805 9.68763Z" fill="#C0CCDA"/>
<path d="M72.7029 31.3652C72.4721 31.3652 72.2414 31.3652 72.0106 31.3652C71.4646 31.3652 71.4646 31.3652 71.5589 30.8159C71.5719 30.7477 71.5979 30.6827 71.6044 30.6144C71.6076 30.5494 71.6174 30.4519 71.5816 30.4259C71.5004 30.3674 71.4354 30.4519 71.3834 30.5104C71.0714 30.8549 70.7106 31.1214 70.2784 31.3067C68.9491 31.8787 67.4541 31.2839 66.7846 30.0262C66.0468 28.6384 65.9818 27.1596 66.1736 25.6451C66.3328 24.3906 66.6936 23.2043 67.3793 22.1318C67.8831 21.3421 68.5071 20.6563 69.4138 20.3573C70.5091 19.9965 71.5231 20.2175 72.4299 21.2706C72.4591 21.3063 72.4754 21.3518 72.5079 21.3843C72.5794 21.4526 72.6216 21.5923 72.7386 21.5663C72.8491 21.5403 72.8329 21.3941 72.8459 21.3063C73.0181 20.2338 73.1871 19.158 73.3366 18.0823C73.3626 17.8905 73.4146 17.8353 73.6031 17.8385C74.2467 17.8483 74.8934 17.8613 75.5369 17.8353C75.8522 17.8223 75.8847 17.9685 75.8392 18.196C75.6507 19.106 75.5662 20.029 75.4264 20.9488C75.2607 22.0343 75.1112 23.1263 74.9519 24.2118C74.7049 25.8759 74.4384 27.5366 74.2109 29.2039C74.1232 29.8506 74.0289 30.4974 73.9281 31.1409C73.8956 31.3392 73.8209 31.3814 73.6454 31.3749C73.3236 31.3587 73.0116 31.3652 72.7029 31.3652ZM72.1829 24.9073C72.2024 24.6343 72.1016 24.1306 71.9066 23.6463C71.6726 23.0678 70.9966 22.7591 70.4019 22.9541C69.9014 23.1166 69.5731 23.4643 69.3326 23.9128C68.9361 24.6571 68.7671 25.4599 68.7378 26.2951C68.7151 26.9516 68.7183 27.6081 69.0563 28.2061C69.2123 28.4824 69.4171 28.6936 69.7551 28.7586C70.5286 28.9081 71.2599 28.4921 71.6271 27.6959C72.0009 26.8866 72.1569 26.0384 72.1829 24.9073Z" fill="#C0CCDA"/>
<path d="M18.4989 13.3669C17.8456 14.2834 16.9584 14.6311 15.9606 14.7286C14.7873 14.8424 13.6336 14.2866 13.2566 12.8566C12.8243 11.2121 13.1363 9.73657 14.4298 8.56331C15.1058 7.9523 15.9606 7.7118 16.8414 7.56555C17.5141 7.45505 18.1934 7.45505 18.8661 7.55255C19.0416 7.57855 19.1196 7.5233 19.1554 7.3608C19.2464 6.94804 19.3049 6.55154 18.9766 6.19728C18.7459 5.94703 18.4436 5.88853 18.1446 5.84953C17.0104 5.70653 15.9021 5.87228 14.8166 6.20378C14.7191 6.23304 14.6248 6.27854 14.5013 6.25903C14.6086 5.51803 14.7158 4.77702 14.8263 4.03601C14.8393 3.94176 14.8653 3.86701 15.0018 3.82476C16.2044 3.45751 17.4231 3.18125 18.6906 3.2885C19.5356 3.36 20.3417 3.57126 20.9722 4.18876C21.5149 4.71852 21.7457 5.39453 21.7879 6.13553C21.8367 7.02279 21.6839 7.89055 21.5604 8.76806C21.3394 10.3313 21.0567 11.8848 20.8942 13.4546C20.8617 13.7634 20.7934 14.0656 20.7642 14.3711C20.7479 14.5174 20.6732 14.5304 20.5594 14.5304C19.9256 14.5271 19.2919 14.5206 18.6614 14.5336C18.4599 14.5369 18.4696 14.4296 18.4761 14.2964C18.4891 14.0201 18.5736 13.7439 18.4989 13.3669ZM16.8641 12.4016C17.0721 12.3854 17.3711 12.3301 17.6376 12.1448C18.4664 11.5696 18.6711 10.7083 18.7491 9.78207C18.7654 9.60007 18.6321 9.60657 18.5281 9.59357C18.0439 9.53182 17.5726 9.59682 17.0949 9.68782C16.2044 9.86007 15.6226 10.5166 15.7721 11.5176C15.8534 12.0863 16.1849 12.3951 16.8641 12.4016Z" fill="#C0CCDA"/>
<path d="M64.1193 13.4221C63.7293 13.8251 63.388 14.1891 62.9265 14.3808C62.0197 14.7578 61.087 14.9236 60.1607 14.4946C59.5335 14.2053 59.111 13.6756 58.9029 13.0223C58.5259 11.8458 58.6332 10.679 59.189 9.58702C59.6667 8.65426 60.4955 8.09201 61.4802 7.78C62.3285 7.507 63.2125 7.4485 64.103 7.494C64.1615 7.49725 64.22 7.494 64.2753 7.5005C64.7725 7.56225 64.7725 7.56225 64.831 7.06824C64.9155 6.34999 64.5613 5.93398 63.7715 5.84298C62.647 5.71298 61.5517 5.86248 60.476 6.19074C60.1087 6.30124 60.0957 6.29799 60.1542 5.93398C60.242 5.39123 60.3395 4.85172 60.411 4.30897C60.45 4.01646 60.5247 3.84746 60.866 3.74996C61.9872 3.42496 63.1182 3.19095 64.2883 3.28845C65.3185 3.37621 66.2773 3.65571 66.9078 4.57222C67.249 5.06947 67.379 5.63823 67.3985 6.22649C67.4343 7.2275 67.249 8.20901 67.1093 9.19377C66.8883 10.7668 66.6055 12.3333 66.443 13.9161C66.4398 13.9388 66.4398 13.9616 66.4365 13.9843C66.3878 14.5271 66.3878 14.5271 65.845 14.5271C65.3738 14.5271 64.9025 14.5173 64.428 14.5303C64.181 14.5368 64.0348 14.5173 64.1095 14.2021C64.1648 13.9843 64.1778 13.7406 64.1193 13.4221ZM63.6447 9.57077C63.3035 9.54802 62.9427 9.63252 62.5885 9.71702C62.0717 9.84052 61.659 10.1233 61.4542 10.627C61.139 11.3973 61.3925 12.5023 62.5235 12.3951C62.8095 12.3691 63.0825 12.2845 63.3197 12.1025C63.9113 11.6508 64.1713 11.0235 64.2915 10.315C64.4215 9.57077 64.4248 9.57077 63.6447 9.57077Z" fill="#C0CCDA"/>
<path d="M60.2326 31.7781C59.5664 31.8496 58.8708 31.6936 58.2208 31.2841C57.5741 30.8779 57.1321 30.3091 56.8526 29.6201C56.2318 28.0959 56.2221 26.5261 56.5178 24.9238C56.7128 23.8806 57.0833 22.9283 57.7138 22.0735C58.7506 20.663 60.6714 19.9935 62.3159 20.4778C63.7231 20.8905 64.4869 21.898 64.9029 23.2241C65.1987 24.1633 65.2442 25.1383 65.1629 26.1166C65.0979 26.8803 64.9582 27.6311 64.7892 28.3819C64.4317 29.9711 62.8456 31.5441 61.2531 31.7716C60.9509 31.8139 60.6356 31.7781 60.2326 31.7781ZM62.5044 25.3788C62.5109 25.0213 62.4946 24.6671 62.4199 24.3161C62.2444 23.5036 61.8804 23.0843 61.2596 22.9998C60.6649 22.9186 60.2391 23.2111 59.9109 23.6596C59.3226 24.4623 59.0886 25.3886 59.0463 26.3668C59.0171 27.0786 59.0301 27.7839 59.3616 28.4534C59.6574 29.0481 60.2489 29.3374 60.8664 29.1456C61.4286 28.9701 61.7569 28.5574 61.9876 28.0569C62.3841 27.2086 62.4816 26.2986 62.5044 25.3788Z" fill="#C0CCDA"/>
<path d="M42.8998 11.6472C42.8705 12.4663 42.6105 13.243 42.5488 14.0523C42.5325 14.2538 42.4318 14.3318 42.266 14.3773C40.9335 14.7348 39.5945 14.894 38.223 14.5983C37.1245 14.361 36.2535 13.8183 35.662 12.8563C35.2525 12.19 35.0835 11.4425 34.9892 10.6755C34.8137 9.24547 35.0412 7.86096 35.558 6.53169C36.052 5.26093 36.845 4.20467 38.119 3.61641C39.6953 2.89165 41.6713 3.17441 42.7795 4.65642C43.3483 5.42018 43.5206 6.32044 43.5108 7.2532C43.5043 8.04296 43.4328 8.82947 43.2606 9.60623C43.1988 9.88573 43.1013 9.99298 42.7925 9.98973C41.1935 9.97023 39.5945 9.98973 37.9922 9.97348C37.6672 9.97023 37.6087 10.0872 37.6185 10.3667C37.664 11.553 38.2848 12.0795 39.4483 12.2518C40.5955 12.4208 41.6843 12.1575 42.7373 11.709C42.7893 11.683 42.8413 11.6667 42.8998 11.6472ZM39.4028 7.76021V7.76346C39.7375 7.76346 40.0723 7.76346 40.4038 7.76346C41.005 7.76346 41.005 7.76346 40.9758 7.15895C40.9725 7.10045 40.966 7.0452 40.9595 6.9867C40.7938 5.81669 39.7765 5.35518 38.7885 6.03119C38.249 6.40169 38.0377 6.9867 37.898 7.60095C37.8622 7.76346 37.9792 7.75696 38.0865 7.75696C38.5285 7.76021 38.964 7.76021 39.4028 7.76021Z" fill="#C0CCDA"/>
<path d="M27.1827 20.5298C27.563 20.5298 27.9433 20.5428 28.3235 20.5233C28.551 20.5103 28.5998 20.598 28.5673 20.7995C28.4145 21.7615 28.239 22.7203 28.1253 23.6856C27.9953 24.7906 27.7418 25.8761 27.68 26.9876C27.6573 27.4003 27.6475 27.8228 27.9205 28.1739C28.2455 28.5931 29.0483 28.6711 29.5065 28.3331C30.176 27.8391 30.475 27.1143 30.6245 26.3506C30.865 25.1253 31.0438 23.8871 31.2128 22.6488C31.3005 22.0118 31.4273 21.3845 31.5085 20.7475C31.5313 20.5785 31.5865 20.52 31.762 20.52C32.4868 20.5298 33.2116 20.5233 33.9396 20.5233C34.0663 20.5233 34.1833 20.494 34.1476 20.715C33.9591 21.8915 33.7933 23.0713 33.6146 24.2478C33.3936 25.7071 33.1563 27.1663 32.9483 28.6289C32.8281 29.4674 32.7371 30.3124 32.6526 31.1541C32.6331 31.3524 32.5973 31.4401 32.3763 31.4336C31.7328 31.4206 31.086 31.4206 30.4425 31.4336C30.228 31.4369 30.1923 31.3556 30.2183 31.1704C30.2735 30.7966 30.319 30.4196 30.358 30.0459C30.3678 29.9646 30.4165 29.8379 30.319 29.7989C30.1955 29.7501 30.15 29.8834 30.098 29.9679C29.7178 30.5561 29.2595 31.0729 28.6193 31.3751C27.511 31.8984 26.1557 31.7781 25.4992 30.4586C25.1612 29.7794 24.9857 29.0709 24.9662 28.3136C24.9402 27.2768 25.0702 26.2596 25.2197 25.2358C25.3985 24.0008 25.5545 22.7625 25.73 21.5275C25.7495 21.391 25.782 21.2578 25.795 21.1213C25.8502 20.5298 25.847 20.5298 26.4255 20.5298C26.6757 20.5298 26.9292 20.5298 27.1827 20.5298Z" fill="#C0CCDA"/>
<path d="M0.542357 28.3624C1.40687 28.9701 2.35588 29.1651 3.37314 29.0871C4.4294 29.0059 5.20941 28.4144 5.0534 27.1664C4.99815 26.7146 4.72515 26.3994 4.3774 26.1329C3.95814 25.8079 3.48039 25.5836 3.02538 25.3204C1.95612 24.6996 1.33212 23.8058 1.26711 22.5611C1.20861 21.4463 1.30937 20.3576 1.90737 19.3728C2.45013 18.4758 3.24964 17.9525 4.26365 17.6893C5.38816 17.3968 6.49642 17.5268 7.60793 17.725C7.89718 17.777 8.16694 17.9265 8.44319 18.037C8.56344 18.0858 8.60244 18.1605 8.56669 18.3068C8.39119 19.0283 8.21894 19.753 8.07594 20.4811C8.00769 20.8158 7.88743 20.7671 7.64368 20.6468C6.63617 20.1528 5.58316 19.9806 4.52365 20.4583C3.76964 20.7963 3.67214 21.9631 4.3059 22.5026C4.84215 22.9608 5.48891 23.2403 6.07067 23.6238C7.04893 24.2673 7.55918 25.1741 7.69568 26.3181C7.82893 27.4134 7.69893 28.4794 7.25043 29.4772C6.78567 30.5074 5.95691 31.1672 4.87465 31.5182C4.04914 31.7847 3.20414 31.8334 2.35263 31.7717C1.79687 31.7327 1.25736 31.5539 0.721109 31.3914C0.675609 31.3784 0.636608 31.3589 0.591108 31.3427C-0.0816493 31.0664 -0.0751493 31.0697 0.100353 30.3417C0.262854 29.6949 0.392856 29.0449 0.542357 28.3624Z" fill="#C0CCDA"/>
<path d="M83.181 28.632C83.0347 29.529 82.8982 30.3481 82.765 31.1703C82.7455 31.2873 82.6967 31.3491 82.5797 31.3848C81.1335 31.8203 79.671 31.9958 78.2182 31.4628C76.9539 30.9981 76.2422 30.0101 75.9334 28.7328C75.7807 28.099 75.6767 27.449 75.6994 26.7958C75.7547 25.2585 76.0114 23.7602 76.8304 22.4245C77.4869 21.352 78.3807 20.559 79.6677 20.3282C81.1205 20.0649 82.765 20.7507 83.376 22.3887C83.6945 23.2435 83.779 24.1275 83.688 25.0277C83.6392 25.5055 83.5645 25.9833 83.5125 26.461C83.4572 26.9713 83.4637 26.9713 82.9665 26.9713C81.504 26.9713 80.0415 26.9843 78.5822 26.9615C78.2442 26.9583 78.1824 27.0785 78.1857 27.3743C78.2052 28.489 78.9397 29.2235 80.0577 29.3048C81.14 29.3795 82.1475 29.152 83.181 28.632ZM81.3447 24.264C81.348 24.264 81.3512 24.264 81.3545 24.264C81.348 24.1372 81.3447 24.0105 81.3285 23.887C81.27 23.38 81.0132 23.0095 80.5322 22.8242C80.0545 22.639 79.6222 22.782 79.2517 23.0907C78.7869 23.4742 78.6147 24.0267 78.4652 24.5825C78.4099 24.7872 78.5627 24.7937 78.7154 24.7937C79.5085 24.7937 80.3015 24.7937 81.0945 24.8002C81.2635 24.8035 81.3577 24.7547 81.348 24.5695C81.3415 24.472 81.3447 24.368 81.3447 24.264Z" fill="#C0CCDA"/>
<path d="M46.9496 28.6484C46.8066 29.5259 46.6701 30.3481 46.5433 31.1737C46.5238 31.2939 46.4816 31.3492 46.3646 31.3849C45.1035 31.7554 43.8425 31.9439 42.5328 31.6189C40.989 31.2354 40.1017 30.2506 39.7345 28.7361C39.1917 26.5001 39.52 24.3778 40.6445 22.3986C41.327 21.1961 42.3703 20.39 43.8035 20.2893C45.266 20.1885 46.5368 20.8905 47.1316 22.3076C47.5021 23.1851 47.5541 24.1048 47.4598 25.0441C47.4046 25.5803 47.3558 26.1134 47.2518 26.6464C47.1966 26.9259 47.0796 26.9811 46.8163 26.9779C45.318 26.9649 43.823 26.9811 42.3248 26.9649C42.042 26.9616 41.9835 27.0559 41.9738 27.3159C41.938 28.5281 42.7245 29.2269 43.875 29.2984C44.4015 29.3309 44.9248 29.3146 45.4448 29.1976C45.9518 29.0839 46.4231 28.8856 46.9496 28.6484ZM43.667 24.7971C43.9205 24.7971 44.174 24.7971 44.4243 24.7971C45.1783 24.7971 45.188 24.7971 45.136 24.0398C45.1003 23.5361 44.9053 23.1071 44.4178 22.8763C43.9563 22.6553 43.5305 22.7333 43.1275 23.0323C42.6043 23.4191 42.4093 23.9846 42.2565 24.5761C42.2143 24.7418 42.2955 24.8003 42.458 24.7971C42.8643 24.7906 43.2673 24.7938 43.667 24.7971Z" fill="#C0CCDA"/>
<path d="M16.0546 28.6872C16.0741 29.0025 15.9701 29.2755 15.9311 29.5582C15.8596 30.0555 15.7783 30.5527 15.7133 31.0532C15.6873 31.2515 15.5963 31.362 15.4078 31.4172C14.0006 31.817 12.5868 31.986 11.173 31.4822C10.1038 31.102 9.40503 30.3317 9.01177 29.2755C8.58602 28.125 8.60877 26.9387 8.70302 25.7427C8.80052 24.4979 9.16778 23.3377 9.83403 22.2814C10.5588 21.1341 11.5728 20.3606 12.9541 20.2826C14.6213 20.1884 15.9051 21.0854 16.3991 22.7007C16.7501 23.8544 16.6624 25.0179 16.4414 26.1749C16.3926 26.4382 16.4966 26.8022 16.2561 26.9355C16.0546 27.0492 15.7393 26.9647 15.4728 26.9647C14.1468 26.9647 12.8241 26.9745 11.4981 26.9582C11.212 26.955 11.1048 27.046 11.108 27.319C11.1275 28.5312 11.6996 29.152 12.9053 29.2885C13.8803 29.399 14.8228 29.2397 15.7133 28.801C15.8173 28.7522 15.9278 28.7295 16.0546 28.6872ZM12.7818 24.7969C13.0353 24.7969 13.2888 24.7969 13.5423 24.7969C14.3256 24.7969 14.3256 24.7969 14.2541 24.0039C14.1533 22.8827 13.1686 22.3952 12.2521 23.0322C11.6996 23.4157 11.5176 24.0299 11.3713 24.6474C11.3323 24.8099 11.4753 24.7937 11.5761 24.7937C11.9758 24.7969 12.3788 24.7969 12.7818 24.7969Z" fill="#C0CCDA"/>
<path d="M55.715 28.3591C55.663 29.3082 55.4355 30.1922 55.3608 31.0924C55.3478 31.2647 55.2763 31.3622 55.0878 31.4174C53.9048 31.7554 52.712 31.9049 51.529 31.4857C50.6287 31.1672 49.93 30.5627 49.4425 29.7307C48.5585 28.2194 48.4642 26.5749 48.5747 24.8784C48.6397 23.8741 48.8217 22.9023 49.15 21.9566C49.6277 20.5753 50.3622 19.3793 51.5907 18.5278C52.9135 17.6145 54.337 17.4715 55.858 17.9103C56.2318 18.0175 56.6055 18.128 56.9696 18.2645C57.0768 18.3035 57.1743 18.3263 57.1483 18.4985C57.0086 19.402 56.885 20.3056 56.7518 21.2286C56.0238 20.8711 55.325 20.5396 54.519 20.5298C53.5245 20.5201 52.79 20.9816 52.2115 21.7421C51.542 22.6228 51.3177 23.6628 51.165 24.7224C51.0447 25.5706 51.113 26.4059 51.3567 27.2379C51.7467 28.5769 52.9363 29.2659 54.2883 28.9084C54.7823 28.7784 55.2438 28.5834 55.715 28.3591Z" fill="#C0CCDA"/>
<path d="M26.9456 3.27861C27.6834 3.27211 28.4114 3.37611 29.1394 3.48661C29.2759 3.50611 29.3052 3.53536 29.2792 3.67511C29.1654 4.36412 29.0647 5.05313 28.9639 5.74539C28.9347 5.93389 28.8632 6.01514 28.6487 5.98589C28.0799 5.90789 27.5111 5.83314 26.9359 5.83639C26.6531 5.83964 26.3866 5.89164 26.1266 5.98264C25.8179 6.09314 25.6326 6.31414 25.5969 6.63915C25.5611 6.9999 25.6196 7.32165 25.9869 7.51015C26.4516 7.75391 26.9099 8.00741 27.3714 8.26091C28.3497 8.80042 28.7592 9.68768 28.8372 10.7472C28.8924 11.5434 28.7722 12.3235 28.4017 13.0482C27.9857 13.864 27.2609 14.3027 26.4224 14.5107C24.9599 14.8747 23.4844 14.7025 22.0153 14.4652C21.7878 14.4295 21.7423 14.3612 21.7716 14.111C21.8496 13.474 21.9666 12.8435 22.0608 12.2097C22.0966 11.9725 22.1323 11.901 22.3923 11.9822C23.1853 12.2357 24.0011 12.369 24.8396 12.3137C25.0216 12.3007 25.2134 12.2975 25.3856 12.2422C25.7431 12.1317 26.0779 11.979 26.1461 11.5402C26.2274 11.0104 26.1039 10.7699 25.6554 10.4774C25.1126 10.1199 24.4951 9.90218 23.9719 9.49593C23.0261 8.76142 22.7043 7.78316 22.7791 6.65215C22.8246 5.94364 23.0001 5.25138 23.4486 4.66312C24.0629 3.85712 24.9274 3.51261 25.8926 3.34686C26.2339 3.29161 26.5881 3.27861 26.9456 3.27861Z" fill="#C0CCDA"/>
<path d="M23.6047 28.619C23.5202 29.5031 23.4129 30.3513 23.2602 31.1931C23.2212 31.4076 23.0457 31.4401 22.9124 31.4758C21.9309 31.7163 20.9494 31.9243 19.9386 31.5603C19.1261 31.2678 18.5411 30.7283 18.1349 30.0003C17.2184 28.3558 17.1241 26.604 17.5499 24.8035C17.9204 23.2272 18.6354 21.859 20.0524 20.975C20.9787 20.3997 21.9927 20.1625 23.0847 20.416C23.5332 20.52 23.9622 20.6727 24.3847 20.8547C24.6219 20.9555 24.7357 21.0627 24.6577 21.3747C24.4724 22.1027 24.3489 22.847 24.1962 23.614C23.8907 23.4677 23.6274 23.3117 23.3382 23.2077C21.9407 22.704 20.8259 23.4222 20.3481 24.7125C20.0719 25.46 20.0036 26.24 20.0816 27.02C20.1694 27.8878 20.5464 28.6125 21.4207 28.9375C21.9212 29.126 22.4412 29.048 22.9417 28.8725C23.1497 28.7945 23.3609 28.71 23.6047 28.619Z" fill="#C0CCDA"/>
<path d="M33.8489 6.18415C33.1826 6.18415 33.1696 6.1809 33.0526 6.85041C32.8186 8.20242 32.5943 9.55769 32.3798 10.913C32.3441 11.1372 32.3278 11.3745 32.3993 11.5987C32.5261 11.992 32.8641 12.0667 33.2184 12.0992C33.3549 12.1122 33.4946 12.1057 33.6311 12.0862C34.0699 12.031 34.0764 12.044 34.0049 12.4697C33.9106 13.032 33.7546 13.5877 33.7514 14.1662C33.7514 14.2995 33.7091 14.4165 33.5596 14.4555C32.6463 14.6927 31.7428 14.943 30.7906 14.605C30.0171 14.332 29.6043 13.5 29.5393 12.6062C29.4873 11.9335 29.6498 11.2835 29.7506 10.6302C29.9618 9.25218 30.1568 7.87092 30.3746 6.49616C30.5533 5.35539 30.7581 4.21788 30.9498 3.08037C30.9856 2.86587 31.0083 2.64812 31.0441 2.43361C31.1383 1.88111 31.1416 1.88436 31.6778 1.88436C32.3116 1.88436 32.9453 1.89086 33.5759 1.88111C33.7676 1.87786 33.8261 1.90386 33.7904 2.12486C33.7286 2.50836 33.6701 2.89187 33.5629 3.26562C33.5076 3.46387 33.5726 3.53537 33.7806 3.52562C34.0894 3.51262 34.4014 3.52887 34.7134 3.51912C34.9051 3.51262 34.9246 3.56787 34.9084 3.75638C34.8401 4.48763 34.6711 5.20264 34.5964 5.93065C34.5736 6.15165 34.5021 6.20365 34.3039 6.1874C34.1511 6.1744 33.9984 6.18415 33.8489 6.18415Z" fill="#C0CCDA"/>
<path d="M50.3589 3.45398C50.2939 3.83748 50.0826 4.15924 49.9461 4.50699C49.7056 5.12125 49.5594 5.75175 49.4066 6.38551C49.3709 6.53826 49.3319 6.61626 49.1466 6.60976C48.5519 6.59351 48.1944 6.94127 47.9701 7.44502C47.6711 8.11778 47.5118 8.82954 47.3786 9.55104C47.1933 10.5748 46.9886 11.5953 46.8423 12.6256C46.7676 13.1683 46.6668 13.7111 46.6051 14.2571C46.5791 14.4781 46.5011 14.5431 46.2801 14.5366C45.5423 14.5236 44.8046 14.5268 44.0701 14.5333C43.8816 14.5366 43.8101 14.5073 43.8458 14.2896C44.1221 12.5703 44.3821 10.8511 44.6518 9.13179C44.9021 7.55227 45.1621 5.97276 45.4058 4.38999C45.4481 4.11049 45.3603 3.69448 45.5423 3.57423C45.7633 3.43123 46.1403 3.52223 46.4491 3.51898C46.8748 3.51573 47.3006 3.52873 47.7263 3.51573C47.9441 3.50923 48.0091 3.56448 47.9636 3.78873C47.8856 4.18199 47.8369 4.57849 47.7784 4.975C47.7751 4.9945 47.7881 5.01725 47.8173 5.10175C48.4966 4.25999 49.0231 3.21348 50.3589 3.45398Z" fill="#C0CCDA"/>
<path d="M71.6269 4.9879C71.8869 4.91315 71.9292 4.6629 72.0689 4.51015C72.2997 4.2599 72.5044 3.98689 72.7709 3.76914C73.1252 3.47664 73.5282 3.42139 73.9637 3.42139C74.1782 3.42139 74.2042 3.50914 74.1164 3.66839C73.8304 4.18189 73.6647 4.7409 73.4762 5.29341C73.3494 5.66391 73.2844 6.04741 73.2097 6.42767C73.1869 6.54142 73.1577 6.61617 73.0179 6.60967C72.1664 6.58367 71.8316 7.17518 71.6171 7.84468C71.1491 9.29745 70.9411 10.8087 70.7266 12.3135C70.6291 12.9927 70.4471 13.659 70.4211 14.348C70.4146 14.517 70.3139 14.543 70.1676 14.5398C69.4071 14.5333 68.6466 14.53 67.8894 14.543C67.6846 14.5463 67.6554 14.4618 67.6814 14.2993C67.7529 13.8377 67.8244 13.373 67.8926 12.9115C68.1006 11.5205 68.3021 10.1295 68.5166 8.74169C68.7019 7.55543 68.9066 6.36917 69.0886 5.18291C69.1634 4.6954 69.2251 4.2079 69.3194 3.72364C69.3486 3.56114 69.4039 3.51889 69.5599 3.52214C70.2391 3.52864 70.9184 3.52864 71.5976 3.52214C71.7634 3.52214 71.8056 3.55464 71.7796 3.73664C71.7179 4.13964 71.5814 4.53615 71.6269 4.9879Z" fill="#C0CCDA"/>
<path d="M37.8106 20.5136C37.7358 21.0011 37.6578 21.4529 37.6936 21.9339C37.9991 21.7194 38.1258 21.3749 38.3501 21.1116C38.7238 20.6729 39.1528 20.3674 39.7606 20.3706C39.9946 20.3739 40.0791 20.4324 39.9653 20.6599C39.5786 21.4366 39.3511 22.2687 39.1918 23.1104C39.1236 23.4647 39.0261 23.5687 38.6556 23.5979C38.0901 23.6467 37.8593 24.1407 37.7098 24.6119C37.2515 26.0484 37.0565 27.537 36.855 29.0222C36.751 29.7925 36.595 30.5562 36.5235 31.333C36.5105 31.4727 36.439 31.4987 36.3188 31.4987C35.594 31.4955 34.866 31.4955 34.1413 31.4987C33.9853 31.4987 33.9528 31.4597 33.9788 31.3005C34.203 29.8412 34.4175 28.3787 34.6288 26.9162C34.918 24.8979 35.2008 22.8797 35.4803 20.8581C35.516 20.6111 35.581 20.4811 35.88 20.4974C36.5138 20.5331 37.1573 20.5136 37.8106 20.5136Z" fill="#C0CCDA"/>
<path d="M86.6259 12.9508C86.6291 13.8803 85.8686 14.6766 84.9846 14.6733C84.0973 14.6701 83.3238 13.864 83.3336 12.9475C83.3433 12.0343 84.1396 11.212 85.0008 11.2218C85.8654 11.2315 86.6226 12.0375 86.6259 12.9508ZM83.7138 12.941C83.7106 13.6723 84.2891 14.3028 84.9716 14.3093C85.6639 14.319 86.2749 13.6755 86.2684 12.9443C86.2619 12.2195 85.7061 11.641 85.0106 11.6345C84.2761 11.628 83.7171 12.1968 83.7138 12.941Z" fill="#C0CCDA"/>
<path d="M84.9556 30.3318C84.9556 30.205 84.9426 30.0783 84.9589 29.9548C85.0044 29.6233 84.9979 29.3503 84.5331 29.4445C84.4096 29.4705 84.3901 29.3763 84.3869 29.2723C84.3804 29.1423 84.4226 29.087 84.5591 29.087C84.9621 29.0935 85.3619 29.0935 85.7649 29.087C85.9046 29.0838 85.9371 29.1455 85.9371 29.2723C85.9371 29.4088 85.8786 29.4705 85.7519 29.4445C85.3424 29.3665 85.3099 29.5973 85.3261 29.9158C85.3456 30.2928 85.3294 30.6731 85.3294 31.0501C85.3294 31.1671 85.3456 31.2776 85.1636 31.2776C84.9946 31.2776 84.9426 31.2126 84.9491 31.0501C84.9621 30.8128 84.9556 30.5723 84.9556 30.3318Z" fill="#C0CCDA"/>
<path d="M84.4484 12.9541C84.4484 12.8858 84.4387 12.8143 84.4517 12.7493C84.4874 12.5673 84.3347 12.2813 84.5394 12.2196C84.8254 12.1318 85.1667 12.1285 85.4397 12.3171C85.6379 12.4536 85.6639 12.7266 85.5177 12.8663C85.2934 13.0808 85.4007 13.2368 85.4917 13.4318C85.5307 13.5131 85.6379 13.6301 85.5079 13.6918C85.3812 13.7503 85.2577 13.7146 85.1764 13.5488C85.0984 13.3896 85.1277 13.0906 84.8677 13.1198C84.5817 13.1491 84.7767 13.4156 84.7344 13.5716C84.7084 13.6723 84.6694 13.7048 84.5752 13.7048C84.4614 13.7048 84.4484 13.6301 84.4484 13.5423C84.4517 13.3441 84.4484 13.1491 84.4484 12.9541ZM84.9587 12.8728C85.1212 12.8891 85.2512 12.8403 85.2479 12.6648C85.2447 12.4568 85.0757 12.4731 84.9262 12.4601C84.7377 12.4438 84.7377 12.5478 84.7312 12.6876C84.7214 12.8761 84.8254 12.8891 84.9587 12.8728Z" fill="#C0CCDA"/>
</svg>
