<svg width="73" height="32" viewBox="0 0 73 32" fill="none" xmlns="http://www.w3.org/2000/svg">
<path d="M41.1185 31.7958C40.6013 31.5778 40.0353 31.5741 39.4993 31.4351C38.3109 31.1258 38.3121 31.1395 38.5237 29.9561C38.6252 29.3888 38.7442 28.8215 38.7917 28.2479C38.8293 27.8034 38.9884 27.861 39.2914 28.01C40.4874 28.5998 41.7535 28.8603 43.0884 28.7839C43.5668 28.7564 44.0227 28.6499 44.4309 28.3957C45.171 27.9349 45.2512 27.1634 44.6225 26.5661C44.198 26.1628 43.6745 25.9161 43.1561 25.6607C42.4998 25.3388 41.8674 24.9794 41.3001 24.5135C39.756 23.2424 39.4279 21.2688 40.4974 19.5707C41.3465 18.2219 42.6539 17.5532 44.1504 17.2176C45.8172 16.8431 47.4715 16.9546 49.1008 17.468C49.3375 17.5432 49.4915 17.6283 49.4327 17.9376C49.2623 18.8468 49.1221 19.761 48.963 20.719C48.2668 20.4009 47.5742 20.1505 46.8366 20.0678C46.1078 19.9864 45.3764 19.9489 44.6726 20.2081C44.2305 20.3709 43.8448 20.6214 43.7672 21.1361C43.6908 21.6345 44.0252 21.9188 44.3758 22.1767C44.9544 22.6013 45.6181 22.8743 46.2418 23.2199C46.5598 23.3965 46.8704 23.5881 47.1747 23.7885C49.8597 25.558 49.0908 28.824 47.4703 30.2191C46.4684 31.0819 45.2837 31.5002 44.0014 31.7018C43.9187 31.7144 43.8123 31.6768 43.7697 31.7945C42.8856 31.7958 42.0014 31.7958 41.1185 31.7958Z" fill="#C0CCDA"/>
<path d="M0 1.57867C0.805238 1.43089 1.61048 1.28563 2.41446 1.13535C2.65365 1.09026 2.63988 1.25933 2.66868 1.40835C2.96423 2.92741 3.26478 4.44396 3.55908 5.96302C3.8446 7.43699 4.12512 8.91222 4.4094 10.3874C4.42067 10.4438 4.45573 10.4951 4.50457 10.6066C4.93412 9.75252 5.33987 8.94478 5.74562 8.13703C6.84139 5.9555 7.94343 3.77648 9.02543 1.58743C9.16068 1.31443 9.3097 1.21174 9.61276 1.22301C10.2928 1.2468 10.974 1.23052 11.7367 1.23052C11.341 1.98066 10.9765 2.67068 10.6121 3.36196C8.84384 6.71566 7.06806 10.0656 5.31232 13.4268C5.14325 13.7499 4.95541 13.8488 4.61102 13.8301C4.09507 13.8013 3.57661 13.8113 3.0594 13.8275C2.80518 13.8351 2.69498 13.7674 2.63612 13.4944C1.82587 9.78884 1.0006 6.08825 0.174072 2.38766C0.140259 2.23363 0.160296 2.05079 0 1.94434C0 1.82162 0 1.70014 0 1.57867Z" fill="#C0CCDA"/>
<path d="M56.2865 0.665527C55.738 4.21959 55.1895 7.77366 54.6397 11.3277C54.5283 12.0478 54.4018 12.7654 54.3028 13.4867C54.2728 13.7009 54.1914 13.7635 53.9848 13.7572C53.559 13.7447 53.1319 13.7409 52.7074 13.7585C52.4469 13.7685 52.3505 13.6783 52.3705 13.4191C52.3893 13.1774 52.3743 12.9344 52.3743 12.6264C52.1151 12.8318 51.9009 13.0096 51.678 13.1774C50.988 13.6971 50.2203 13.9714 49.3462 13.9388C48.0663 13.8912 47.1196 13.1761 46.8841 11.9188C46.521 9.98149 46.8704 8.1481 48.0726 6.56768C49.3287 4.91713 51.0644 4.62034 52.9817 5.10999C53.3411 5.20141 53.4087 5.12001 53.4538 4.7919C53.6153 3.63476 53.8195 2.48514 53.9785 1.328C54.0161 1.05625 54.125 0.977354 54.3705 0.939784C54.8877 0.860888 55.4187 0.844608 55.9183 0.66678C56.0423 0.665527 56.165 0.665527 56.2865 0.665527ZM51.5841 6.67663C50.9479 6.62153 50.3831 6.84069 49.9786 7.3366C49.1145 8.39606 48.8352 9.63084 49.0857 10.9646C49.2147 11.6558 49.7357 12.0127 50.4445 11.9839C51.1383 11.9551 51.6642 11.5769 52.1664 11.1449C52.4206 10.927 52.5609 10.6715 52.6072 10.3371C52.7487 9.33279 52.9053 8.32969 53.0693 7.32784C53.1044 7.11119 53.0518 6.99347 52.8427 6.91207C52.4407 6.75553 52.0337 6.65535 51.5841 6.67663Z" fill="#C0CCDA"/>
<path d="M72.2772 7.23888C71.5884 8.37849 71.0411 9.59198 70.4213 10.7679C69.8201 11.9075 69.2403 13.0584 68.6492 14.203C68.3825 14.7177 68.0719 15.2011 67.6386 15.5968C67.0112 16.1691 66.2561 16.3182 65.4383 16.2618C65.2116 16.2468 65.1064 16.1441 65.139 15.9124C65.1428 15.8823 65.1402 15.8523 65.139 15.821C65.134 15.5179 65.02 15.1472 65.1553 14.9318C65.2805 14.7327 65.67 14.9281 65.9467 14.9118C66.7482 14.8642 67.3355 14.1341 67.1702 13.3564C66.7607 11.4291 66.3562 9.50056 65.933 7.57575C65.8779 7.32529 65.8941 7.22009 66.1734 7.19881C66.5366 7.17125 66.8985 7.11866 67.2567 7.05479C67.571 6.99844 67.6724 7.12116 67.72 7.42673C67.9204 8.71536 68.1483 10.0002 68.3687 11.2851C68.3862 11.384 68.4251 11.4792 68.4752 11.647C69.1163 10.3045 69.7613 9.0372 70.3248 7.73354C70.5415 7.23262 70.7994 7.036 71.3317 7.09486C71.641 7.12868 71.9666 7.15748 72.2784 7.05479C72.2772 7.11615 72.2772 7.17752 72.2772 7.23888Z" fill="#C0CCDA"/>
<path d="M57.2334 17.28C57.7055 17.28 58.1776 17.2926 58.6485 17.275C58.8965 17.2663 58.9841 17.3514 59.0342 17.5956C59.7267 20.9531 60.4305 24.308 61.1331 27.6642C61.3848 28.8664 61.6252 30.0724 61.8982 31.2696C61.9646 31.5602 61.887 31.6027 61.6277 31.6002C60.6998 31.589 59.7706 31.584 58.8426 31.604C58.5671 31.6103 58.4744 31.5101 58.4293 31.2596C58.3379 30.7524 58.2052 30.2527 58.1213 29.7443C58.0787 29.4913 57.966 29.4287 57.7268 29.43C56.3718 29.4387 55.018 29.4438 53.663 29.4275C53.3938 29.4237 53.2898 29.5302 53.2122 29.7593C53.0369 30.2765 52.8252 30.7825 52.6637 31.3022C52.581 31.5677 52.4295 31.604 52.1903 31.6015C51.1559 31.5915 50.1202 31.5789 49.0858 31.6052C48.6801 31.6153 48.6726 31.5001 48.8091 31.1757C50.4684 27.2359 52.1189 23.2911 53.772 19.3476C53.9072 19.0258 54.0375 18.7027 54.1765 18.3833C54.4958 17.647 55.0794 17.3038 55.8633 17.2825C56.3204 17.27 56.7775 17.28 57.2334 17.28ZM56.3517 21.201C55.6793 23.0332 55.0518 24.7438 54.4082 26.5008C55.3837 26.5008 56.2941 26.4983 57.2033 26.5033C57.3799 26.5046 57.44 26.4658 57.3999 26.2729C57.0555 24.6299 56.7199 22.9856 56.3517 21.201Z" fill="#C0CCDA"/>
<path d="M25.1177 24.7803C25.3532 25.4641 25.4283 26.1854 25.6212 26.9656C26.2937 25.1572 26.9386 23.4253 27.5823 21.6933C28.0895 20.3283 28.5942 18.9633 29.1001 17.5995C29.1627 17.4305 29.1965 17.2627 29.4533 17.2652C30.6692 17.2764 31.8865 17.2702 33.1588 17.2702C32.7744 18.2232 32.4112 19.1349 32.0405 20.044C30.534 23.7359 29.02 27.4252 27.5259 31.122C27.3782 31.4877 27.2066 31.6217 26.8046 31.6079C25.7865 31.5741 24.7646 31.5866 23.7452 31.6042C23.4822 31.6092 23.372 31.5265 23.3069 31.2773C22.2474 27.2286 21.1792 23.1823 20.1147 19.1349C20.245 19.21 20.379 19.2814 20.5067 19.3615C22.6069 20.6877 24.1297 22.5061 25.1177 24.7803Z" fill="#C0CCDA"/>
<path d="M36.4925 17.2689C36.9947 17.2689 37.4982 17.2802 37.9991 17.2651C38.2646 17.2576 38.3623 17.2914 38.3084 17.6095C37.9089 19.9902 37.537 22.3746 37.1525 24.7565C36.8044 26.9142 36.445 29.0707 36.1093 31.2297C36.0643 31.5227 35.9628 31.6054 35.6785 31.6016C34.6742 31.5866 33.6686 31.5891 32.6642 31.6004C32.4012 31.6029 32.3223 31.539 32.3674 31.2635C33.1038 26.7552 33.8339 22.2456 34.5515 17.7335C34.6103 17.3616 34.7368 17.2251 35.1238 17.2589C35.5759 17.3002 36.0355 17.2689 36.4925 17.2689Z" fill="#C0CCDA"/>
<path d="M45.4866 11.1677C45.4866 11.6148 45.4541 11.983 45.4954 12.3424C45.543 12.7544 45.3777 12.9648 45.0183 13.1489C43.7797 13.7863 42.4773 14.0355 41.0935 13.9078C39.4693 13.7588 38.4161 12.7757 38.1669 11.1627C37.815 8.88979 38.9045 6.42648 40.7303 5.3808C41.6946 4.82853 42.734 4.68201 43.811 4.90117C45.0696 5.15664 45.7734 5.98692 46.0301 7.21168C46.1854 7.9493 46.1366 8.69067 46.0189 9.43078C45.9738 9.7113 45.8711 9.82025 45.5555 9.8165C43.9588 9.79521 42.3609 9.819 40.7629 9.79771C40.3797 9.7927 40.2783 9.90416 40.287 10.2786C40.3171 11.6912 41.245 12.4351 42.7428 12.2297C43.5531 12.1183 44.2969 11.8327 45.002 11.4295C45.1447 11.3493 45.2888 11.2742 45.4866 11.1677ZM40.5788 8.42518C41.6696 8.42518 42.7303 8.42518 43.791 8.42518C43.9212 8.42518 44.0064 8.41015 44.0352 8.23983C44.1391 7.60867 43.7885 6.74582 43.2988 6.48534C42.7328 6.18354 41.9839 6.32129 41.4529 6.82347C40.9983 7.25301 40.7366 7.7865 40.5788 8.42518Z" fill="#C0CCDA"/>
<path d="M16.905 11.1535C16.905 11.4866 16.8636 11.7521 16.9125 12.0013C17.0565 12.7377 16.6921 13.0808 16.0559 13.3463C14.7259 13.8998 13.3684 14.1102 11.9583 13.8034C10.5958 13.5078 9.70666 12.4797 9.58644 11.0909C9.41738 9.1523 9.86821 7.40532 11.3034 6.0165C12.3966 4.9583 13.7416 4.62143 15.2156 4.89693C16.6332 5.16117 17.486 6.29201 17.5424 7.86742C17.5612 8.3696 17.5236 8.86802 17.4572 9.36644C17.4147 9.68578 17.3095 9.82229 16.9463 9.81602C15.3496 9.79223 13.7516 9.81853 12.1537 9.79599C11.7742 9.79098 11.6916 9.92122 11.7003 10.2656C11.7404 11.6995 12.6834 12.4359 14.1975 12.2242C15.1655 12.0902 16.0196 11.6845 16.905 11.1535ZM13.694 8.4247C14.0735 8.4247 14.4529 8.4247 14.8324 8.4247C15.4936 8.4247 15.4936 8.4247 15.4373 7.75096C15.3383 6.58505 14.4104 6.00273 13.381 6.48236C12.6371 6.82926 12.2889 7.49799 12.0485 8.23936C11.9809 8.4485 12.1161 8.42345 12.2363 8.42345C12.7222 8.4247 13.2081 8.4247 13.694 8.4247Z" fill="#C0CCDA"/>
<path d="M28.7041 6.78167C28.788 6.25195 28.8882 5.77481 28.9308 5.29393C28.9571 4.99713 29.0936 4.96832 29.3403 4.96832C30.247 4.96707 30.2482 4.95956 30.3985 4.06791C30.4436 3.79866 30.4724 3.52566 30.5225 3.25766C30.7854 1.86759 31.8086 0.97219 33.2888 0.854473C33.682 0.823165 34.079 0.85322 34.4748 0.844454C34.714 0.839445 34.8404 0.909575 34.8292 1.18133C34.8116 1.59083 34.8129 2.00284 34.8292 2.41235C34.8392 2.6553 34.7352 2.70164 34.5311 2.65655C34.4572 2.64027 34.3808 2.62775 34.3057 2.62149C33.2062 2.52631 32.7866 2.85191 32.5975 3.94518C32.4197 4.97333 32.4197 4.96832 33.4641 4.97459C34.1942 4.97834 34.0865 4.87064 34.0916 5.59699C34.0941 5.97393 34.218 6.47861 34.0264 6.69652C33.801 6.95199 33.2838 6.77166 32.8931 6.77792C32.1667 6.79169 32.163 6.78167 32.0515 7.49675C31.7497 9.44535 31.4454 11.3952 31.1561 13.3463C31.1085 13.6631 30.9933 13.7871 30.6602 13.7608C30.2369 13.7283 29.8061 13.7233 29.3829 13.7621C28.9834 13.7984 28.8995 13.6669 28.9608 13.2912C29.2338 11.6294 29.4843 9.9638 29.7435 8.29948C29.8086 7.87995 29.8675 7.45792 29.9451 7.0409C29.9827 6.83928 29.9276 6.7704 29.721 6.77917C29.3916 6.79169 29.0598 6.78167 28.7041 6.78167Z" fill="#C0CCDA"/>
<path d="M60.876 7.69975C61.1716 7.53445 61.4496 7.35286 61.7476 7.21636C63.3055 6.50504 64.7181 7.31529 64.8596 9.01844C64.9448 10.0528 64.7457 11.0509 64.2548 11.9701C63.5422 13.3039 62.3638 13.8449 60.9023 13.8499C60.1246 13.8524 59.3582 13.7459 58.6068 13.5305C58.3651 13.4616 58.2562 13.3677 58.3 13.091C58.7145 10.4661 59.114 7.84001 59.5285 5.21516C59.5874 4.84573 59.496 4.35482 59.7715 4.14193C60.037 3.9378 60.4941 3.98288 60.866 3.91776C61.3957 3.82509 61.4007 3.82634 61.3206 4.36233C61.1791 5.30783 61.0276 6.25333 60.8848 7.19882C60.861 7.35787 60.8097 7.52067 60.876 7.69975ZM63.1477 9.95141C63.164 8.9984 62.8359 8.50749 62.2185 8.44488C61.6249 8.38477 60.6043 9.05726 60.5179 9.58198C60.3839 10.3885 60.2737 11.2 60.1347 12.0052C60.0908 12.2594 60.1873 12.3546 60.4127 12.416C61.5711 12.7315 62.5591 12.2181 62.9336 11.0823C63.0663 10.679 63.1577 10.2632 63.1477 9.95141Z" fill="#C0CCDA"/>
<path d="M21.303 6.6692C21.9955 5.84893 22.6756 5.18896 23.6524 4.92848C24.4 4.72936 24.3962 4.72059 24.3975 5.47699C24.3987 5.82639 24.3812 6.17829 24.4125 6.52518C24.4438 6.86205 24.3374 7.00106 23.9905 7.04614C23.0613 7.16762 22.2685 7.59716 21.5535 8.19201C21.1703 8.51135 20.9862 8.89331 20.9198 9.39173C20.7395 10.7442 20.5028 12.0905 20.3099 13.4417C20.2736 13.6997 20.1797 13.7661 19.938 13.7585C19.4371 13.7435 18.9336 13.7398 18.4327 13.7598C18.1484 13.7711 18.0595 13.6934 18.1059 13.4004C18.429 11.3779 18.7383 9.35416 19.0526 7.33167C19.1553 6.6717 19.2855 6.01549 19.3519 5.35301C19.3857 5.01865 19.5272 4.95603 19.8165 4.97106C20.2849 4.99485 20.8923 4.81828 21.1878 5.04995C21.4996 5.29415 21.2554 5.92908 21.2917 6.39243C21.2942 6.44628 21.2955 6.50264 21.303 6.6692Z" fill="#C0CCDA"/>
<path d="M35.0659 13.7608C35.0208 13.7608 34.9745 13.7608 34.9294 13.7608C33.9551 13.7608 33.9438 13.7596 34.0916 12.7903C34.4723 10.3032 34.8718 7.81861 35.2412 5.32901C35.2863 5.02345 35.3965 4.95833 35.6695 4.96835C36.1554 4.98588 36.6438 4.98964 37.1284 4.96709C37.4227 4.95332 37.4979 5.04975 37.4528 5.33402C37.161 7.16115 36.8817 8.99078 36.5974 10.8179C36.4672 11.657 36.3057 12.4922 36.2155 13.3363C36.1754 13.707 36.0339 13.7972 35.7045 13.7646C35.4942 13.7446 35.2788 13.7608 35.0659 13.7608Z" fill="#C0CCDA"/>
<path d="M25.4883 13.7612C25.2453 13.7612 24.9999 13.7449 24.7582 13.7662C24.4576 13.7925 24.3562 13.6998 24.4063 13.3855C24.8345 10.6742 25.2553 7.96171 25.6673 5.24794C25.6999 5.0363 25.7788 4.96617 25.9854 4.96993C26.5026 4.97995 27.0211 4.99623 27.5358 4.96617C27.8902 4.94488 27.9015 5.11269 27.8601 5.37442C27.6372 6.79705 27.4193 8.22093 27.1977 9.64481C27.0036 10.8884 26.7932 12.1294 26.6203 13.3755C26.5778 13.6835 26.4801 13.8 26.1708 13.7674C25.9466 13.7424 25.7162 13.7612 25.4883 13.7612Z" fill="#C0CCDA"/>
<path d="M25.1176 24.7799C24.1295 22.5069 22.6067 20.6873 20.5053 19.3598C20.3776 19.2797 20.2436 19.2083 20.1133 19.1332C19.0263 18.4456 17.8416 17.9886 16.6119 17.6304C16.4854 17.5941 16.2512 17.6304 16.2712 17.415C16.2963 17.1533 16.5355 17.276 16.6732 17.2747C18.4991 17.266 20.3262 17.2647 22.1521 17.271C23.2879 17.2747 23.7638 17.6554 23.9867 18.7525C24.3674 20.6247 24.7344 22.5006 25.1025 24.3754C25.1301 24.5043 25.1138 24.6433 25.1176 24.7799Z" fill="#C0CCDA"/>
<path d="M37.0158 1.021C37.6959 1.02225 38.153 1.46807 38.1417 2.11928C38.1267 2.90323 37.4679 3.53064 36.6539 3.5369C35.9526 3.54191 35.4943 3.11862 35.5031 2.47118C35.5143 1.67721 36.2006 1.01975 37.0158 1.021Z" fill="#C0CCDA"/>
<path d="M27.4257 1.021C28.1157 1.01975 28.554 1.44553 28.5502 2.11302C28.5452 2.89822 27.8978 3.52187 27.0738 3.53565C26.3812 3.54692 25.9079 3.11362 25.9141 2.47368C25.9216 1.68598 26.6117 1.0235 27.4257 1.021Z" fill="#C0CCDA"/>
</svg>
