<svg width="103" height="32" viewBox="0 0 103 32" fill="none" xmlns="http://www.w3.org/2000/svg">
<path fill-rule="evenodd" clip-rule="evenodd" d="M74.9788 2.16808L73.857 8.65189L73.1119 8.30643C71.5892 7.70138 69.625 7.1183 66.9218 7.16023C63.684 7.16023 62.1816 8.49214 62.1816 9.73419C62.1634 11.136 63.9371 12.0585 66.8307 13.4424C71.6054 15.581 73.8064 18.1709 73.776 21.5716C73.7113 27.7878 68.0659 31.7955 59.367 31.7955C55.6554 31.7596 52.0794 31.0367 50.1497 30.202L51.312 23.5026L52.3771 23.9758C55.0965 25.0921 56.8541 25.5453 60.1628 25.5453C62.544 25.5453 65.0954 24.6328 65.1197 22.6259C65.1318 21.316 64.0465 20.3815 60.8269 18.9158C57.6863 17.484 53.5313 15.0818 53.5758 10.7845C53.6264 4.96568 59.3872 0.908058 67.5617 0.908058C70.7691 0.908058 73.3407 1.56103 74.9788 2.16808ZM96.1424 0.908058L102.729 31.7955H95.179C95.179 31.7955 94.4326 28.246 94.1897 27.1653C93.0034 27.1653 84.7069 27.1509 83.7754 27.1509C83.4549 27.9882 82.0635 31.7955 82.0635 31.7955H73.5183L85.5987 3.4717C86.4546 1.4608 87.9117 0.908058 89.8604 0.908058H96.1424ZM9.26403 4.77555C6.57679 3.28728 3.48252 2.09631 0 1.28475L0.10095 0.665527H13.6839C15.5113 0.733007 16.9905 1.2907 17.4993 3.17417L20.4475 16.8447C20.2777 16.4255 20.0937 16.0105 19.8959 15.6C20.2303 16.3087 20.5079 17.0177 20.7214 17.7184L21.5886 22.0041L29.6957 0.908058H38.4654L25.4284 31.7831L16.6668 31.7955L9.26403 4.77555ZM86.1142 20.8315C86.789 19.0495 89.3528 12.1897 89.3528 12.1897C89.307 12.2743 90.0216 10.3995 90.4296 9.24041L90.981 11.9051C90.981 11.9051 92.5396 19.2826 92.866 20.8315H86.1142ZM37.0049 31.7955L42.0574 0.908058H50.1497L45.0834 31.7955H37.0049Z" fill="#C0CCDA"/>
</svg>
